<svg xmlns="http://www.w3.org/2000/svg" width="600" height="400" viewBox="0 0 600 400">
  <rect width="600" height="400" fill="#f8fafc"/>

  <!-- Title -->
  <text x="300" y="30" text-anchor="middle" fill="#1e293b" font-size="14" font-weight="600" font-family="system-ui">
    Energy Consumption by Source: 1990 vs 2020
  </text>

  <!-- 1990 Pie Chart -->
  <g transform="translate(150, 200)">
    <text x="0" y="-120" text-anchor="middle" fill="#475569" font-size="13" font-weight="500" font-family="system-ui">1990</text>

    <!-- Oil 45% -->
    <path d="M0,0 L0,-100 A100,100 0 0,1 95,-31 Z" fill="#1e40af"/>
    <!-- Coal 30% -->
    <path d="M0,0 L95,-31 A100,100 0 0,1 59,81 Z" fill="#475569"/>
    <!-- Gas 15% -->
    <path d="M0,0 L59,81 A100,100 0 0,1 -59,81 Z" fill="#0891b2"/>
    <!-- Nuclear 8% -->
    <path d="M0,0 L-59,81 A100,100 0 0,1 -95,-31 Z" fill="#7c3aed"/>
    <!-- Renewables 2% -->
    <path d="M0,0 L-95,-31 A100,100 0 0,1 0,-100 Z" fill="#16a34a"/>
  </g>

  <!-- 2020 Pie Chart -->
  <g transform="translate(450, 200)">
    <text x="0" y="-120" text-anchor="middle" fill="#475569" font-size="13" font-weight="500" font-family="system-ui">2020</text>

    <!-- Oil 35% -->
    <path d="M0,0 L0,-100 A100,100 0 0,1 81,-59 Z" fill="#1e40af"/>
    <!-- Gas 28% -->
    <path d="M0,0 L81,-59 A100,100 0 0,1 95,31 Z" fill="#0891b2"/>
    <!-- Coal 18% -->
    <path d="M0,0 L95,31 A100,100 0 0,1 31,95 Z" fill="#475569"/>
    <!-- Nuclear 10% -->
    <path d="M0,0 L31,95 A100,100 0 0,1 -59,81 Z" fill="#7c3aed"/>
    <!-- Renewables 9% -->
    <path d="M0,0 L-59,81 A100,100 0 0,1 0,-100 Z" fill="#16a34a"/>
  </g>

  <!-- Legend -->
  <g transform="translate(150, 350)" font-size="11" font-family="system-ui">
    <rect x="0" y="0" width="12" height="12" fill="#1e40af"/>
    <text x="16" y="10" fill="#475569">Oil</text>

    <rect x="60" y="0" width="12" height="12" fill="#475569"/>
    <text x="76" y="10" fill="#475569">Coal</text>

    <rect x="130" y="0" width="12" height="12" fill="#0891b2"/>
    <text x="146" y="10" fill="#475569">Gas</text>

    <rect x="190" y="0" width="12" height="12" fill="#7c3aed"/>
    <text x="206" y="10" fill="#475569">Nuclear</text>

    <rect x="270" y="0" width="12" height="12" fill="#16a34a"/>
    <text x="286" y="10" fill="#475569">Renewables</text>
  </g>
</svg>
